<svg width="610" height="610" viewBox="0 0 610 610" fill="none" xmlns="http://www.w3.org/2000/svg">
<path d="M156.979 10.3215C153.117 14.0687 151.248 19.4188 151.938 24.7557L215.106 516.828C216.31 526.176 224.863 532.778 234.212 531.575C239.533 530.89 244.223 527.743 246.872 523.077L335.178 367.374L512.003 395.193C519.251 396.336 526.419 392.716 529.802 386.206C530.177 385.486 530.498 384.74 530.763 383.975C532.898 377.869 531.398 371.08 526.888 366.442L181.112 10.6841C174.548 3.91989 163.743 3.75765 156.979 10.3215ZM519 379L335.178 354C328.203 352.933 328.505 352.378 325 358.5L230.5 516.828L166.5 15L519 379Z" fill="black"/>
</svg>
